<svg width="33" height="32" viewBox="0 0 33 32" fill="none" xmlns="http://www.w3.org/2000/svg">
<rect x="1.7287" y="0.75" width="30.5" height="30.5" rx="4.25" fill="#1E262F" stroke="#1E262F" stroke-width="1.5"/>
<path d="M24.9787 16C24.9787 13.8783 24.1358 11.8434 22.6356 10.3431C21.1353 8.84285 19.1004 8 16.9787 8C14.857 8 12.8221 8.84285 11.3218 10.3431C9.82155 11.8434 8.9787 13.8783 8.9787 16V20H11.9787C12.2439 20 12.4983 20.1054 12.6858 20.2929C12.8733 20.4804 12.9787 20.7348 12.9787 21V24H20.9787V21C20.9787 20.7348 21.0841 20.4804 21.2716 20.2929C21.4591 20.1054 21.7135 20 21.9787 20H24.9787V16ZM22.9787 22V25C22.9787 25.2652 22.8733 25.5196 22.6858 25.7071C22.4983 25.8946 22.2439 26 21.9787 26H11.9787C11.7135 26 11.4591 25.8946 11.2716 25.7071C11.0841 25.5196 10.9787 25.2652 10.9787 25V22H7.9787C7.71348 22 7.45913 21.8946 7.27159 21.7071C7.08406 21.5196 6.9787 21.2652 6.9787 21V16C6.9787 10.477 11.4557 6 16.9787 6C22.5017 6 26.9787 10.477 26.9787 16V21C26.9787 21.2652 26.8733 21.5196 26.6858 21.7071C26.4983 21.8946 26.2439 22 25.9787 22H22.9787ZM12.4787 18C12.2817 18 12.0867 17.9612 11.9047 17.8858C11.7227 17.8104 11.5573 17.6999 11.418 17.5607C11.2788 17.4214 11.1683 17.256 11.0929 17.074C11.0175 16.892 10.9787 16.697 10.9787 16.5C10.9787 16.303 11.0175 16.108 11.0929 15.926C11.1683 15.744 11.2788 15.5786 11.418 15.4393C11.5573 15.3001 11.7227 15.1896 11.9047 15.1142C12.0867 15.0388 12.2817 15 12.4787 15C12.8765 15 13.2581 15.158 13.5394 15.4393C13.8207 15.7206 13.9787 16.1022 13.9787 16.5C13.9787 16.8978 13.8207 17.2794 13.5394 17.5607C13.2581 17.842 12.8765 18 12.4787 18V18ZM21.4787 18C21.2817 18 21.0867 17.9612 20.9047 17.8858C20.7227 17.8104 20.5573 17.6999 20.418 17.5607C20.2788 17.4214 20.1683 17.256 20.0929 17.074C20.0175 16.892 19.9787 16.697 19.9787 16.5C19.9787 16.303 20.0175 16.108 20.0929 15.926C20.1683 15.744 20.2788 15.5786 20.418 15.4393C20.5573 15.3001 20.7227 15.1896 20.9047 15.1142C21.0867 15.0388 21.2817 15 21.4787 15C21.8765 15 22.2581 15.158 22.5394 15.4393C22.8207 15.7206 22.9787 16.1022 22.9787 16.5C22.9787 16.8978 22.8207 17.2794 22.5394 17.5607C22.2581 17.842 21.8765 18 21.4787 18V18Z" fill="#FCFCFC"/>
</svg>
